<svg width="400" height="272" viewBox="0 0 400 272" fill="none" xmlns="http://www.w3.org/2000/svg">
<path d="M155.752 206.216C99.6207 179.003 63.097 283.64 0 270.923V0H400V223.753C370.15 190.022 342.351 170.536 290.266 234.034C238.18 297.531 211.884 233.429 155.752 206.216Z" fill="#6F29C1"/>
<g clip-path="url(#clip0)">
<path d="M65.4791 65.8238L63.8272 66.7131C64.6371 65.2183 64.7078 63.37 63.8491 61.7751C62.4865 59.244 59.3037 58.3108 56.7409 59.6905C55.9766 60.0997 55.3248 60.6908 54.8432 61.4116C54.3616 62.1324 54.0648 62.9607 53.9793 63.8234C53.2118 63.42 52.3568 63.2117 51.4898 63.2169C50.6228 63.2222 49.7704 63.4408 49.0079 63.8536C46.4458 65.2329 45.4728 68.4034 46.8355 70.9345C47.6941 72.5294 49.2754 73.4883 50.9688 73.6355L49.3165 74.525C49.0814 74.6516 48.9931 74.9424 49.1181 75.1746L49.625 76.1161L43.5133 77.6492C43.2811 77.7742 43.1932 78.0648 43.3182 78.297L47.3889 85.8585C47.514 86.0907 47.8045 86.1765 48.0367 86.0515L52.6816 81.7938L53.1889 82.7361C53.3139 82.9683 53.6049 83.0539 53.8399 82.9273L60.6551 79.2584L61.3695 87.7408L59.7815 88.5957L60.1928 89.3596L62.7813 87.966L61.9463 79.5485L65.236 85.6593L64.0762 86.2837L64.4874 87.0475L67.9673 85.1741L67.5561 84.4103L66.3959 85.0349L63.1061 78.9241L69.7362 84.2218L72.2212 82.884L71.81 82.1202L70.2632 82.9529L63.5756 77.6861L70.0026 74.2261C70.236 74.1005 70.3276 73.8089 70.2026 73.5767L66.1318 66.0152C66.0068 65.783 65.7126 65.6981 65.4791 65.8238V65.8238ZM44.3372 78.3374L45.2157 78.1167L48.5834 84.3721L47.9154 84.9839L44.3372 78.3374ZM65.1813 67.9546L67.6486 72.5377L61.4616 75.8685L58.9943 71.2854L65.1813 67.9546V67.9546ZM58.3858 62.7459C59.2405 62.2858 60.3017 62.5967 60.7559 63.4404C61.2101 64.2841 60.8853 65.3412 60.0306 65.8013C59.1759 66.2614 58.1164 65.9496 57.6622 65.1059C57.208 64.2622 57.5315 63.2058 58.3858 62.7459ZM56.7049 68.8864C57.3248 69.2126 58.0036 69.4119 58.7014 69.4726L56.0942 70.8762C56.4283 70.2603 56.636 69.5838 56.7049 68.8864V68.8864ZM50.6523 66.9092C51.5066 66.4493 52.5682 66.76 53.0224 67.6037C53.4767 68.4474 53.1515 69.5047 52.2972 69.9646C51.4438 70.4241 50.3834 70.1127 49.9292 69.269C49.475 68.4253 49.7989 67.3687 50.6523 66.9092ZM51.4666 75.8308L57.6532 72.5003L58.4756 74.028L52.289 77.3585L51.4666 75.8308ZM52.7003 78.1224L58.8868 74.7918L59.7093 76.3195L53.5227 79.6501L52.7003 78.1224ZM68.8149 73.8803L54.2064 81.7448C53.9693 81.8725 53.6851 81.8053 53.5713 81.5939C53.4579 81.3832 53.5579 81.1082 53.795 80.9806L68.403 73.1163C68.6397 72.9888 68.9247 73.0566 69.0381 73.2672C69.1524 73.4784 69.0516 73.7529 68.8149 73.8803Z" fill="white" fill-opacity="0.5"/>
<path d="M59.5866 71.4594L65.0004 68.5449L67.0565 72.3641L61.6427 75.2786L59.5866 71.4594Z" fill="white" fill-opacity="0.5"/>
</g>
<g clip-path="url(#clip1)">
<path d="M353.172 124.647L351.305 124.831C352.629 123.763 353.406 122.085 353.228 120.283C352.946 117.422 350.368 115.334 347.472 115.62C346.609 115.703 345.78 115.998 345.057 116.477C344.335 116.957 343.742 117.607 343.331 118.37C342.778 117.702 342.069 117.181 341.267 116.851C340.465 116.522 339.594 116.396 338.732 116.483C335.836 116.769 333.717 119.319 333.999 122.18C334.177 123.983 335.267 125.477 336.773 126.265L334.905 126.449C334.64 126.476 334.446 126.71 334.472 126.972L334.577 128.036L328.346 127.097C328.084 127.122 327.891 127.357 327.917 127.619L328.76 136.165C328.786 136.428 329.021 136.619 329.284 136.593L335.21 134.453L335.315 135.518C335.341 135.781 335.577 135.972 335.842 135.946L343.545 135.186L340.936 143.289L339.142 143.466L339.227 144.329L342.152 144.04L344.625 135.951L345.306 142.857L343.995 142.987L344.081 143.85L348.014 143.462L347.928 142.599L346.617 142.728L345.936 135.821L350.013 143.265L352.822 142.987L352.736 142.124L350.988 142.297L346.846 134.86L354.11 134.143C354.373 134.117 354.57 133.883 354.544 133.621L353.701 125.075C353.675 124.812 353.436 124.621 353.172 124.647V124.647ZM328.842 128.049L329.737 128.184L330.435 135.254L329.583 135.561L328.842 128.049ZM352.077 126.498L352.588 131.678L345.595 132.368L345.084 127.188L352.077 126.498V126.498ZM347.812 119.074C348.778 118.978 349.638 119.674 349.732 120.628C349.826 121.581 349.119 122.431 348.153 122.527C347.187 122.622 346.33 121.926 346.235 120.973C346.141 120.019 346.847 119.169 347.812 119.074ZM343.896 124.092C344.342 124.632 344.892 125.078 345.512 125.403L342.565 125.693C343.111 125.254 343.563 124.709 343.896 124.092V124.092ZM339.072 119.936C340.038 119.841 340.898 120.537 340.992 121.49C341.086 122.444 340.378 123.294 339.413 123.389C338.448 123.485 337.59 122.789 337.496 121.835C337.401 120.882 338.107 120.031 339.072 119.936ZM336.386 128.483L343.378 127.793L343.549 129.519L336.557 130.209L336.386 128.483ZM336.642 131.073L343.634 130.383L343.804 132.109L336.812 132.799L336.642 131.073ZM353.147 133.366L336.636 134.996C336.368 135.022 336.132 134.851 336.108 134.612C336.085 134.374 336.283 134.158 336.551 134.132L353.061 132.503C353.329 132.476 353.566 132.649 353.589 132.887C353.613 133.126 353.414 133.34 353.147 133.366Z" fill="white" fill-opacity="0.5"/>
<path d="M345.564 127.577L351.682 126.973L352.108 131.29L345.99 131.894L345.564 127.577Z" fill="white" fill-opacity="0.5"/>
</g>
<g clip-path="url(#clip2)">
<path d="M161.441 139.386L162.624 142.792L159.72 142.04L158.536 138.634L156.6 138.132L157.784 141.538L154.88 140.786L153.696 137.38L151.76 136.878L152.944 140.284L150.04 139.532L148.856 136.126L147.888 135.875C146.823 135.599 145.736 136.247 145.46 137.312L142.441 148.926C142.165 149.991 142.81 151.088 143.875 151.364L159.364 155.377C160.429 155.653 161.526 155.007 161.802 153.942L165.313 140.39L161.441 139.386ZM152.085 148.584L150.185 150.933L149.665 147.957L147.316 146.057L150.292 145.537L152.191 143.188L152.712 146.164L155.06 148.064L152.085 148.584ZM158.423 146.807L156.997 148.565L156.603 146.335L154.845 144.909L157.075 144.515L158.501 142.757L158.895 144.987L160.653 146.413L158.423 146.807Z" fill="white" fill-opacity="0.5"/>
</g>
<g clip-path="url(#clip3)">
<path d="M52.8101 195.527C52.4603 195.577 52.1445 195.763 51.9319 196.045C51.7194 196.328 51.6275 196.683 51.6763 197.032C51.726 197.382 51.9124 197.698 52.1946 197.91C52.4769 198.123 52.8319 198.215 53.1817 198.166C53.5314 198.116 53.8472 197.93 54.0597 197.647C54.2722 197.365 54.3642 197.01 54.3154 196.661C54.213 195.933 53.5375 195.425 52.8101 195.527V195.527ZM59.4107 185.515C59.3735 185.251 59.2326 185.012 59.0192 184.851C58.8058 184.69 58.5373 184.621 58.2727 184.658L43.9849 186.671C43.7202 186.708 43.4812 186.849 43.3204 187.062C43.1596 187.276 43.0902 187.544 43.1275 187.809L45.966 207.959C46.0436 208.51 46.5532 208.893 47.1044 208.815L61.3922 206.803C61.5232 206.784 61.6493 206.74 61.7633 206.673C61.8773 206.606 61.9769 206.517 62.0565 206.412C62.1361 206.306 62.1941 206.186 62.2272 206.058C62.2603 205.93 62.2677 205.796 62.2492 205.665L59.4107 185.515ZM53.8845 203.154C50.4063 203.644 47.178 201.214 46.688 197.735C46.1981 194.257 48.6292 191.029 52.1074 190.539C55.5851 190.049 58.813 192.48 59.3029 195.958C59.7924 199.437 57.3617 202.665 53.8845 203.154V203.154Z" fill="white" fill-opacity="0.5"/>
</g>
<g clip-path="url(#clip4)">
<path d="M211.605 100.908C211.467 100.889 211.32 100.93 211.196 101.023L210.068 101.877L211.818 104.189L212.945 103.335C213.192 103.157 213.24 102.81 213.051 102.572L211.958 101.129C211.917 101.07 211.865 101.021 211.804 100.983C211.744 100.945 211.676 100.92 211.605 100.908V100.908ZM209.414 102.372L202.571 107.543L202.288 109.583L204.329 109.866L211.164 104.684L209.414 102.372V102.372ZM200.444 108.319L192.52 107.222C191.994 107.15 191.519 106.871 191.199 106.448C190.879 106.025 190.74 105.493 190.813 104.967L192.457 93.0804C192.53 92.555 192.809 92.08 193.232 91.7598C193.654 91.4397 194.187 91.3007 194.713 91.3734L195.703 91.5105L197.136 95.7468L200.108 96.158L198.675 91.9216L200.656 92.1957L202.089 96.4321L205.061 96.8432L203.628 92.6068L205.609 92.8809L207.042 97.1173L210.014 97.5284L208.581 93.2921L212.543 93.8403L211.978 97.9214L200.703 106.447L200.444 108.319Z" fill="white" fill-opacity="0.5"/>
</g>
<g clip-path="url(#clip5)">
<path d="M292.839 72.15L293.855 69.3273L282.564 65.2637L279.516 73.7319L290.807 77.7955L291.823 74.9728L294.909 78.2091L297.28 71.6227L292.839 72.15ZM288.661 74.8978L282.075 72.5274L283.768 67.8228L290.355 70.1932L288.661 74.8978Z" fill="white" fill-opacity="0.5"/>
<path d="M285.778 71.0969C285.688 71.3464 285.503 71.5501 285.263 71.663C285.023 71.776 284.748 71.789 284.499 71.6992C284.249 71.6094 284.045 71.4241 283.932 71.1841C283.82 70.9442 283.807 70.6692 283.896 70.4196C283.986 70.1701 284.171 69.9664 284.411 69.8535C284.651 69.7405 284.926 69.7275 285.176 69.8173C285.425 69.9071 285.629 70.0924 285.742 70.3324C285.855 70.5723 285.868 70.8473 285.778 71.0969V71.0969Z" fill="white" fill-opacity="0.5"/>
<path d="M288.601 72.1128C288.511 72.3623 288.326 72.566 288.086 72.6789C287.846 72.7919 287.571 72.8049 287.321 72.7151C287.072 72.6253 286.868 72.44 286.755 72.2C286.642 71.9601 286.629 71.6851 286.719 71.4355C286.809 71.186 286.994 70.9823 287.234 70.8694C287.474 70.7564 287.749 70.7434 287.999 70.8332C288.248 70.923 288.452 71.1083 288.565 71.3483C288.678 71.5882 288.691 71.8632 288.601 72.1128V72.1128Z" fill="white" fill-opacity="0.5"/>
</g>
<path d="M258.565 189.863L255.22 186.889L258.939 185.398L260.428 189.107L258.565 189.863ZM255.781 190.965L252.437 188L250.573 188.746L253.926 191.709L255.781 190.965V190.965ZM243.156 191.734L242.228 192.101C241.984 192.199 241.762 192.343 241.574 192.527C241.386 192.71 241.237 192.929 241.133 193.17C241.03 193.412 240.976 193.671 240.973 193.934C240.97 194.196 241.02 194.457 241.118 194.7L241.862 196.555L246.5 194.699L243.156 191.734ZM251.145 192.831L247.798 189.846L245.937 190.612L249.291 193.575L251.145 192.831V192.831ZM245.67 206.015L244.196 198.152L259.923 195.205L260.123 196.276C260.853 196.261 261.558 196.384 262.222 196.615L261.52 192.87L241.862 196.555L243.704 206.384C243.802 206.905 244.103 207.366 244.541 207.666C244.978 207.965 245.517 208.079 246.039 207.981L255.681 206.174C255.224 205.639 254.865 205.024 254.605 204.341L245.67 206.015ZM263.956 200.441L261.07 200.728L259.492 198.337L258.868 201.14L256.093 201.915L258.582 203.361L258.432 206.248L260.614 204.323L263.297 205.336L262.14 202.694L263.956 200.441Z" fill="white" fill-opacity="0.5"/>
<defs>
<clipPath id="clip0">
<rect width="29.6109" height="29.6109" fill="white" transform="translate(36.5 69.5363) rotate(-28.296)"/>
</clipPath>
<clipPath id="clip1">
<rect width="29.6109" height="29.6109" fill="white" transform="translate(325 116.908) rotate(-5.63605)"/>
</clipPath>
<clipPath id="clip2">
<rect width="24" height="24" fill="white" transform="translate(145.019 131) rotate(14.5244)"/>
</clipPath>
<clipPath id="clip3">
<rect width="24.3082" height="24.3082" fill="white" transform="translate(39 186.391) rotate(-8.01844)"/>
</clipPath>
<clipPath id="clip4">
<rect width="24" height="24" fill="white" transform="translate(192.289 87) rotate(7.87714)"/>
</clipPath>
<clipPath id="clip5">
<rect width="16" height="16" fill="white" transform="translate(283.918 61.5) rotate(19.7936)"/>
</clipPath>
</defs>
</svg>
