<svg width="360" height="224" viewBox="0 0 360 224" fill="none" xmlns="http://www.w3.org/2000/svg">
<path d="M130.5 170C75 147.5 60.8872 233.015 -1.5 222.5V-0.5H360.5V184L360.062 183.586C330.826 155.958 314.744 140.761 263.5 193C212 245.5 186 192.5 130.5 170Z" fill="#F7FB21"/>
<g clip-path="url(#clip0)">
<path d="M48.9791 27.4563L47.3272 28.3456C48.1371 26.8508 48.2078 25.0026 47.3491 23.4076C45.9865 20.8766 42.8037 19.9433 40.2409 21.323C39.4766 21.7322 38.8248 22.3233 38.3432 23.0441C37.8616 23.7649 37.5648 24.5933 37.4793 25.4559C36.7118 25.0525 35.8568 24.8442 34.9898 24.8494C34.1228 24.8547 33.2704 25.0734 32.5079 25.4861C29.9458 26.8654 28.9728 30.0359 30.3355 32.567C31.1941 34.1619 32.7754 35.1208 34.4688 35.268L32.8165 36.1575C32.5814 36.2841 32.4931 36.5749 32.6181 36.8071L33.125 37.7486L27.0133 39.2817C26.7811 39.4067 26.6932 39.6973 26.8182 39.9295L30.8889 47.491C31.014 47.7232 31.3045 47.8091 31.5367 47.6841L36.1816 43.4263L36.6889 44.3686C36.8139 44.6008 37.1049 44.6864 37.3399 44.5599L44.1551 40.8909L44.8695 49.3734L43.2815 50.2283L43.6928 50.9921L46.2813 49.5986L45.4463 41.181L48.736 47.2918L47.5762 47.9162L47.9874 48.6801L51.4673 46.8066L51.0561 46.0428L49.8959 46.6674L46.6061 40.5566L53.2362 45.8544L55.7212 44.5165L55.31 43.7527L53.7632 44.5854L47.0756 39.3186L53.5026 35.8586C53.736 35.733 53.8276 35.4414 53.7026 35.2092L49.6318 27.6477C49.5068 27.4155 49.2126 27.3306 48.9791 27.4563V27.4563ZM27.8372 39.97L28.7157 39.7492L32.0834 46.0046L31.4154 46.6165L27.8372 39.97ZM48.6813 29.5871L51.1486 34.1702L44.9616 37.501L42.4943 32.9179L48.6813 29.5871V29.5871ZM41.8858 24.3784C42.7405 23.9183 43.8017 24.2292 44.2559 25.0729C44.7101 25.9166 44.3853 26.9737 43.5306 27.4338C42.6759 27.8939 41.6164 27.5821 41.1622 26.7384C40.708 25.8947 41.0315 24.8383 41.8858 24.3784ZM40.2049 30.5189C40.8248 30.8452 41.5036 31.0444 42.2014 31.1051L39.5942 32.5087C39.9283 31.8928 40.136 31.2163 40.2049 30.5189V30.5189ZM34.1523 28.5417C35.0066 28.0818 36.0682 28.3925 36.5224 29.2362C36.9767 30.0799 36.6515 31.1372 35.7972 31.5971C34.9438 32.0566 33.8834 31.7452 33.4292 30.9015C32.975 30.0578 33.2989 29.0012 34.1523 28.5417ZM34.9666 37.4634L41.1532 34.1328L41.9756 35.6605L35.789 38.9911L34.9666 37.4634ZM36.2003 39.7549L42.3868 36.4243L43.2093 37.952L37.0227 41.2826L36.2003 39.7549ZM52.3149 35.5128L37.7064 43.3773C37.4693 43.505 37.1851 43.4378 37.0713 43.2264C36.9579 43.0158 37.0579 42.7407 37.295 42.6131L51.903 34.7488C52.1397 34.6214 52.4247 34.6891 52.5381 34.8997C52.6524 35.111 52.5516 35.3854 52.3149 35.5128Z" fill="black" fill-opacity="0.41"/>
<path d="M43.0866 33.0919L48.5004 30.1774L50.5565 33.9966L45.1427 36.9111L43.0866 33.0919Z" fill="black" fill-opacity="0.41"/>
</g>
<g clip-path="url(#clip1)">
<path d="M298.172 95.6466L296.305 95.8309C297.629 94.7634 298.406 93.0851 298.228 91.2825C297.946 88.4218 295.368 86.3344 292.472 86.6203C291.609 86.7034 290.78 86.9978 290.057 87.4774C289.335 87.957 288.742 88.6071 288.331 89.3702C287.778 88.7022 287.069 88.1806 286.267 87.8514C285.465 87.5222 284.594 87.3956 283.732 87.4828C280.836 87.7685 278.717 90.3195 278.999 93.1801C279.177 94.9827 280.267 96.4768 281.773 97.265L279.905 97.4493C279.64 97.4755 279.446 97.7099 279.472 97.9723L279.577 99.0364L273.346 98.0966C273.084 98.1225 272.891 98.3568 272.917 98.6192L273.76 107.165C273.786 107.428 274.021 107.619 274.283 107.593L280.21 105.453L280.315 106.518C280.341 106.781 280.577 106.972 280.842 106.946L288.545 106.186L285.936 114.289L284.142 114.466L284.227 115.329L287.152 115.04L289.625 106.951L290.306 113.857L288.995 113.987L289.081 114.85L293.014 114.462L292.928 113.599L291.617 113.728L290.936 106.821L295.013 114.265L297.822 113.987L297.736 113.124L295.988 113.297L291.846 105.86L299.11 105.143C299.373 105.117 299.57 104.883 299.544 104.621L298.701 96.0747C298.675 95.8123 298.436 95.6206 298.172 95.6466V95.6466ZM273.842 99.0492L274.737 99.1839L275.435 106.254L274.583 106.561L273.842 99.0492ZM297.077 97.4982L297.588 102.678L290.595 103.368L290.084 98.1883L297.077 97.4982V97.4982ZM292.812 90.0735C293.778 89.9782 294.638 90.674 294.732 91.6275C294.826 92.5811 294.119 93.4314 293.153 93.5268C292.187 93.6221 291.33 92.9261 291.235 91.9726C291.141 91.019 291.847 90.1688 292.812 90.0735ZM288.896 95.0925C289.342 95.6323 289.892 96.0777 290.512 96.4026L287.565 96.6934C288.111 96.2537 288.563 95.7094 288.896 95.0925V95.0925ZM284.072 90.9361C285.038 90.8408 285.897 91.5365 285.992 92.4901C286.086 93.4436 285.378 94.294 284.413 94.3893C283.448 94.4845 282.59 93.7886 282.496 92.8351C282.401 91.8815 283.107 91.0313 284.072 90.9361ZM281.386 99.4827L288.378 98.7927L288.549 100.519L281.557 101.209L281.386 99.4827ZM281.642 102.073L288.634 101.383L288.804 103.109L281.812 103.799L281.642 102.073ZM298.147 104.366L281.636 105.996C281.368 106.022 281.132 105.851 281.108 105.612C281.085 105.374 281.283 105.158 281.551 105.132L298.061 103.503C298.329 103.476 298.566 103.649 298.589 103.887C298.613 104.126 298.414 104.34 298.147 104.366Z" fill="black" fill-opacity="0.41"/>
<path d="M290.564 98.577L296.682 97.9732L297.108 102.29L290.99 102.894L290.564 98.577Z" fill="black" fill-opacity="0.41"/>
</g>
<g clip-path="url(#clip2)">
<path d="M87.9059 78.4228C94.3857 80.085 100.986 76.1798 102.648 69.7001C104.31 63.2203 100.405 56.6203 93.9252 54.958C87.4454 53.2958 80.8454 57.201 79.1832 63.6808C77.521 70.1606 81.4261 76.7606 87.9059 78.4228Z" fill="#2F88FF" fill-opacity="0.3" stroke="black" stroke-opacity="0.3" stroke-width="4" stroke-linejoin="round"/>
<path d="M91.8185 63.1707C92.2852 63.2904 92.7804 63.2198 93.1951 62.9745C93.6098 62.7291 93.91 62.329 94.0298 61.8623C94.1495 61.3955 94.0789 60.9003 93.8335 60.4856C93.5882 60.0709 93.1881 59.7707 92.7214 59.651C92.2546 59.5312 91.7594 59.6018 91.3447 59.8472C90.93 60.0926 90.6298 60.4926 90.5101 60.9594C90.3903 61.4261 90.4609 61.9213 90.7063 62.336C90.9517 62.7507 91.3517 63.051 91.8185 63.1707ZM89.1098 73.7298C89.5765 73.8495 90.0717 73.779 90.4864 73.5336C90.9011 73.2882 91.2014 72.8881 91.3211 72.4214C91.4408 71.9547 91.3702 71.4595 91.1249 71.0448C90.8795 70.6301 90.4794 70.3298 90.0127 70.2101C89.5459 70.0904 89.0508 70.161 88.6361 70.4063C88.2214 70.6517 87.9211 71.0518 87.8014 71.5185C87.6817 71.9853 87.7522 72.4804 87.9976 72.8951C88.243 73.3098 88.643 73.6101 89.1098 73.7298ZM85.1846 67.0959C85.6513 67.2156 86.1465 67.1451 86.5612 66.8997C86.9759 66.6543 87.2761 66.2542 87.3959 65.7875C87.5156 65.3208 87.445 64.8256 87.1996 64.4109C86.9543 63.9962 86.5542 63.6959 86.0875 63.5762C85.6207 63.4565 85.1255 63.5271 84.7108 63.7724C84.2961 64.0178 83.9959 64.4179 83.8762 64.8846C83.7564 65.3514 83.827 65.8465 84.0724 66.2612C84.3178 66.6759 84.7178 66.9762 85.1846 67.0959V67.0959ZM95.7437 69.8046C96.2104 69.9243 96.7056 69.8537 97.1203 69.6084C97.535 69.363 97.8353 68.9629 97.955 68.4962C98.0747 68.0294 98.0041 67.5342 97.7588 67.1195C97.5134 66.7048 97.1133 66.4046 96.6466 66.2849C96.1798 66.1651 95.6847 66.2357 95.27 66.4811C94.8553 66.7265 94.555 67.1265 94.4353 67.5933C94.3156 68.06 94.3861 68.5552 94.6315 68.9699C94.8769 69.3846 95.277 69.6849 95.7437 69.8046Z" fill="#43CCF8" fill-opacity="0.3" stroke="white" stroke-opacity="0.3" stroke-width="4" stroke-linejoin="round"/>
<path d="M87.9059 78.4228L99.6383 81.4324" stroke="black" stroke-opacity="0.3" stroke-width="4" stroke-linecap="round"/>
</g>
<g clip-path="url(#clip3)">
<path d="M172.441 45.3864L173.624 48.7921L170.72 48.0397L169.536 44.634L167.6 44.1325L168.784 47.5382L165.88 46.7858L164.696 43.3801L162.76 42.8785L163.944 46.2842L161.04 45.5318L159.856 42.1261L158.888 41.8753C157.823 41.5995 156.736 42.2475 156.46 43.3123L153.441 54.9263C153.165 55.9912 153.81 57.0881 154.875 57.364L170.364 61.3767C171.429 61.6525 172.526 61.007 172.802 59.9422L176.313 46.3896L172.441 45.3864ZM163.085 54.584L161.185 56.9327L160.665 53.9571L158.316 52.0573L161.292 51.537L163.191 49.1883L163.712 52.1639L166.06 54.0637L163.085 54.584ZM169.423 52.8068L167.997 54.5652L167.603 52.3353L165.845 50.9087L168.075 50.5154L169.501 48.757L169.895 50.9869L171.653 52.4135L169.423 52.8068Z" fill="black" fill-opacity="0.3"/>
</g>
<g clip-path="url(#clip4)">
<path d="M54.0225 139.347C53.6728 139.396 53.3569 139.583 53.1444 139.865C52.9318 140.147 52.8399 140.502 52.8888 140.852C52.9384 141.201 53.1248 141.517 53.4071 141.73C53.6893 141.942 54.0443 142.034 54.3941 141.985C54.7439 141.935 55.0596 141.749 55.2721 141.467C55.4847 141.185 55.5766 140.83 55.5279 140.48C55.4254 139.752 54.7499 139.244 54.0225 139.347V139.347ZM60.6232 129.335C60.5859 129.07 60.4451 128.831 60.2317 128.67C60.0182 128.509 59.7497 128.44 59.4851 128.477L45.1973 130.49C44.9326 130.527 44.6936 130.668 44.5328 130.881C44.372 131.095 44.3027 131.364 44.3399 131.628L47.1784 151.778C47.256 152.329 47.7656 152.712 48.3168 152.635L62.6046 150.622C62.7356 150.604 62.8617 150.56 62.9757 150.493C63.0897 150.425 63.1894 150.337 63.269 150.231C63.3486 150.125 63.4066 150.005 63.4396 149.877C63.4727 149.749 63.4802 149.615 63.4617 149.484L60.6232 129.335ZM55.0969 146.974C51.6187 147.464 48.3904 145.033 47.9004 141.554C47.4105 138.077 49.8416 134.848 53.3198 134.358C56.7975 133.868 60.0254 136.3 60.5153 139.777C61.0049 143.256 58.5742 146.484 55.0969 146.974V146.974Z" fill="black" fill-opacity="0.3"/>
</g>
<g clip-path="url(#clip5)">
<path d="M201.074 113.377C200.935 113.358 200.788 113.398 200.664 113.492L199.537 114.346L201.286 116.657L202.414 115.804C202.661 115.626 202.709 115.279 202.52 115.041L201.427 113.598C201.386 113.539 201.334 113.489 201.273 113.451C201.212 113.414 201.145 113.388 201.074 113.377V113.377ZM198.883 114.841L192.039 120.012L191.757 122.052L193.798 122.334L200.632 117.152L198.883 114.841V114.841ZM189.913 120.787L181.989 119.691C181.463 119.618 180.988 119.34 180.668 118.917C180.348 118.494 180.209 117.961 180.282 117.436L181.926 105.549C181.999 105.024 182.277 104.549 182.7 104.228C183.123 103.908 183.656 103.769 184.181 103.842L185.172 103.979L186.605 108.215L189.577 108.627L188.144 104.39L190.125 104.664L191.558 108.901L194.529 109.312L193.096 105.075L195.078 105.35L196.51 109.586L199.482 109.997L198.049 105.761L202.011 106.309L201.447 110.39L190.172 118.915L189.913 120.787Z" fill="black" fill-opacity="0.3"/>
</g>
<g clip-path="url(#clip6)">
<path d="M266.102 30.4136L267.118 27.5908L255.827 23.5273L252.779 31.9955L264.07 36.0591L265.086 33.2364L268.173 36.4727L270.543 29.8863L266.102 30.4136ZM261.925 33.1614L255.339 30.7909L257.032 26.0864L263.618 28.4568L261.925 33.1614Z" fill="black" fill-opacity="0.3"/>
<path d="M259.042 29.3605C258.952 29.61 258.767 29.8137 258.527 29.9266C258.287 30.0396 258.012 30.0526 257.762 29.9627C257.513 29.8729 257.309 29.6877 257.196 29.4477C257.083 29.2077 257.07 28.9327 257.16 28.6832C257.25 28.4337 257.435 28.23 257.675 28.1171C257.915 28.0041 258.19 27.9911 258.439 28.0809C258.689 28.1707 258.893 28.356 259.006 28.5959C259.119 28.8359 259.132 29.1109 259.042 29.3605V29.3605Z" fill="black" fill-opacity="0.3"/>
<path d="M261.865 30.3764C261.775 30.6259 261.589 30.8296 261.349 30.9425C261.11 31.0555 260.835 31.0685 260.585 30.9786C260.335 30.8888 260.132 30.7036 260.019 30.4636C259.906 30.2236 259.893 29.9486 259.983 29.6991C260.073 29.4495 260.258 29.2459 260.498 29.133C260.738 29.02 261.013 29.007 261.262 29.0968C261.512 29.1866 261.715 29.3719 261.828 29.6118C261.941 29.8518 261.954 30.1268 261.865 30.3764V30.3764Z" fill="black" fill-opacity="0.3"/>
</g>
<g clip-path="url(#clip7)">
<path d="M237.506 147.19L234.161 144.215L237.88 142.725L239.368 146.434L237.506 147.19ZM234.721 148.292L231.378 145.327L229.513 146.073L232.867 149.036L234.721 148.292V148.292ZM222.097 149.061L221.169 149.428C220.925 149.525 220.702 149.67 220.515 149.853C220.327 150.037 220.177 150.256 220.074 150.497C219.971 150.738 219.916 150.998 219.914 151.26C219.911 151.523 219.96 151.784 220.058 152.027L220.803 153.882L225.44 152.026L222.097 149.061ZM230.086 150.158L226.739 147.173L224.878 147.939L228.231 150.902L230.086 150.158V150.158ZM224.611 163.342L223.137 155.479L238.863 152.531L239.064 153.603C239.794 153.588 240.498 153.71 241.162 153.942L240.46 150.197L220.803 153.882L222.645 163.71C222.743 164.232 223.043 164.693 223.481 164.993C223.919 165.292 224.458 165.406 224.979 165.308L234.621 163.501C234.165 162.966 233.806 162.351 233.545 161.668L224.611 163.342ZM242.897 157.768L240.01 158.055L238.433 155.664L237.809 158.467L235.034 159.242L237.523 160.688L237.372 163.575L239.555 161.65L242.237 162.663L241.081 160.021L242.897 157.768Z" fill="black" fill-opacity="0.3"/>
</g>
<defs>
<clipPath id="clip0">
<rect width="29.6109" height="29.6109" fill="white" transform="translate(20 31.1689) rotate(-28.296)"/>
</clipPath>
<clipPath id="clip1">
<rect width="29.6109" height="29.6109" fill="white" transform="translate(270 87.9081) rotate(-5.63605)"/>
</clipPath>
<clipPath id="clip2">
<rect width="29.0694" height="29.0694" fill="white" transform="translate(80.4483 49) rotate(14.3875)"/>
</clipPath>
<clipPath id="clip3">
<rect width="24" height="24" fill="white" transform="translate(156.019 37) rotate(14.5244)"/>
</clipPath>
<clipPath id="clip4">
<rect width="24.3082" height="24.3082" fill="white" transform="translate(40.2124 130.21) rotate(-8.01844)"/>
</clipPath>
<clipPath id="clip5">
<rect width="24" height="24" fill="white" transform="translate(181.758 99.4686) rotate(7.87714)"/>
</clipPath>
<clipPath id="clip6">
<rect width="16" height="16" fill="white" transform="translate(257.182 19.7636) rotate(19.7936)"/>
</clipPath>
<clipPath id="clip7">
<rect width="24" height="24" fill="white" transform="translate(216.995 144.421) rotate(-10.6155)"/>
</clipPath>
</defs>
</svg>
